<?xml version="1.0" standalone="no"?>
<!DOCTYPE svg PUBLIC "-//W3C//DTD SVG 20010904//EN"
 "http://www.w3.org/TR/2001/REC-SVG-20010904/DTD/svg10.dtd">
<svg version="1.0" xmlns="http://www.w3.org/2000/svg"
 width="630.000000pt" height="630.000000pt" viewBox="0 0 630.000000 630.000000"
 preserveAspectRatio="xMidYMid meet">
<metadata>
Created by potrace 1.11, written by Peter Selinger 2001-2013
</metadata>
<g transform="translate(0.000000,630.000000) scale(0.100000,-0.100000)"
fill="#000000" stroke="none">
<path d="M3057 5373 c-109 -36 -42 87 -1139 -2107 l-1003 -2006 0 -78 c1 -60
6 -86 23 -119 87 -166 300 -202 430 -73 42 42 134 222 912 1779 476 952 867
1731 870 1731 3 0 397 -785 877 -1744 809 -1619 875 -1746 915 -1779 85 -69
205 -84 297 -38 55 29 116 100 136 161 38 115 108 -37 -994 2168 -897 1793
-1006 2007 -1047 2046 -74 71 -175 93 -277 59z"/>
</g>
</svg>
